<svg id="Capa_1" data-name="Capa 1" xmlns="http://www.w3.org/2000/svg" xmlns:xlink="http://www.w3.org/1999/xlink" viewBox="0 0 359 435.01"><defs><style>.cls-1{fill:url(#Degradado_sin_nombre_38);}</style><linearGradient id="Degradado_sin_nombre_38" x1="391.66" y1="290.02" x2="-58.17" y2="290.02" gradientTransform="translate(-1.22 9.71) rotate(-0.1)" gradientUnits="userSpaceOnUse"><stop offset="0" stop-color="#716003"/><stop offset="1"/></linearGradient></defs><title>elementomovil11</title><path class="cls-1" d="M359,299.12A43.61,43.61,0,0,1,346.35,330l-0.14.14L175.43,503l0,0a43.8,43.8,0,1,1-63-60.89l97.86-98.95-210.14.35L0,256.65l133.67,0h77.89l-94-95,0,0a43.8,43.8,0,1,1,54.55-68.35l0.05,0.05,3.18,3.2L345.37,267.44l0.88,0.88A43.61,43.61,0,0,1,359,299.12Z" transform="translate(0 -81.98)"/></svg>