<svg id="Capa_1" data-name="Capa 1" xmlns="http://www.w3.org/2000/svg" xmlns:xlink="http://www.w3.org/1999/xlink" viewBox="0 0 15.9 15.9"><defs><style>.cls-1{fill:url(#Degradado_sin_nombre_38);}</style><linearGradient id="Degradado_sin_nombre_38" x1="8.32" y1="14.64" x2="24.22" y2="14.64" gradientUnits="userSpaceOnUse"><stop offset="0" stop-color="#716003"/><stop offset="1"/></linearGradient></defs><title>equisnav</title><path class="cls-1" d="M24.06,22l-0.33.32a0.79,0.79,0,0,1-1.08-.15l-6.38-6.31-6.33,6.4a0.76,0.76,0,0,1-1.06.14l-0.32-.32A0.79,0.79,0,0,1,8.71,21L15,14.65,8.62,8.32a0.78,0.78,0,0,1-.15-1.07L8.8,6.94a0.79,0.79,0,0,1,1.08.14l6.38,6.32L22.59,7a0.76,0.76,0,0,1,1.06-.15L24,7.17a0.79,0.79,0,0,1-.15,1.08l-6.31,6.38L23.91,21A0.76,0.76,0,0,1,24.06,22Z" transform="translate(-8.32 -6.69)"/></svg>