<svg id="Capa_1" data-name="Capa 1" xmlns="http://www.w3.org/2000/svg" viewBox="0 0 213.44 258.63"><defs><style>.cls-1{fill:#fff;}</style></defs><title>flechablanca</title><path class="cls-1" d="M-94.27-14.78a25.93,25.93,0,0,1,7.52-18.35l0.08-.08L14.87-136l0,0a26,26,0,0,1,19-8.31,26,26,0,0,1,26.09,26A26,26,0,0,1,52.32-99.8L-5.86-41l124.94-.21,0.09,51.66-79.47,0H-6.61L49.28,67l0,0a26,26,0,1,1-32.43,40.64l0,0-1.89-1.9L-86.16,4.06l-0.53-.52A25.93,25.93,0,0,1-94.27-14.78Z" transform="translate(94.27 144.31)"/></svg>