<svg id="Capa_1" data-name="Capa 1" xmlns="http://www.w3.org/2000/svg" xmlns:xlink="http://www.w3.org/1999/xlink" viewBox="0 0 359.68 426.26"><defs><style>.cls-1{fill:url(#Degradado_sin_nombre_38);}</style><linearGradient id="Degradado_sin_nombre_38" x1="-147" y1="32.06" x2="212.68" y2="32.06" gradientUnits="userSpaceOnUse"><stop offset="0" stop-color="#716003"/><stop offset="1"/></linearGradient></defs><title>flecha</title><path class="cls-1" d="M212.68,31.31A43.78,43.78,0,0,1,200,62.17l-0.13.14L30,234.29a43.33,43.33,0,0,1-28.8,10.9,43.51,43.51,0,0,1-43.5-43.5,43.43,43.43,0,0,1,12.9-30.93l0.62-.45,0-.06,1.28-1.33L65.24,75.13,6,75H-12.65l-133.91-.08L-147,32.15V32l0.31-43.11,134,0.11H6l59.2-.07L-27.5-104.83l-1.28-1.32,0,0-0.62-.46a43.41,43.41,0,0,1-12.9-30.92,43.51,43.51,0,0,1,43.5-43.5,43.34,43.34,0,0,1,30,12l0.28,0.27,1.14,1.15,0.06,0.06L199-.37l0.89,0.88A43.64,43.64,0,0,1,212.68,31.31Z" transform="translate(147 181.07)"/></svg>