<svg id="Capa_1" data-name="Capa 1" xmlns="http://www.w3.org/2000/svg" viewBox="0 0 53.48 46.46"><defs><style>.cls-1{fill:#ffc300;}</style></defs><title>isotipo</title><path class="cls-1" d="M62.57,24.53h0a18.37,18.37,0,0,1-.45,1.95,26.34,26.34,0,0,1-5.39,10.3,26.9,26.9,0,0,1-11,7.82,25.44,25.44,0,0,1-4.45,1.31,10.24,10.24,0,0,1-1.27.21,5.42,5.42,0,0,1-1.09.17,27.47,27.47,0,0,1-3,.18H35.4a27,27,0,0,1-7.7-1.23l-0.1-.05a13,13,0,0,1-1.73-.6,27.13,27.13,0,0,1-5.2-2.72,28,28,0,0,1-3.2-2.51A27.13,27.13,0,0,1,11.27,31c-0.13-.27-0.26-0.55-0.38-0.83a28.21,28.21,0,0,1-1.33-3.73,1.78,1.78,0,0,1,0-.26A7.84,7.84,0,0,1,9.26,25h0a4.91,4.91,0,0,1,0-2.05A28.86,28.86,0,0,1,49.19,2.49a25,25,0,0,0-18.51-.4h0A24.51,24.51,0,0,0,26.75,4l-0.86.47a17.53,17.53,0,0,0,4.23,30.93,10.21,10.21,0,0,0,1.41.44,17.05,17.05,0,0,0,2.71.51,21.38,21.38,0,0,0,2.53,0h0.49a8.35,8.35,0,0,0,1.32-.16,15.93,15.93,0,0,0,2-.43,17.56,17.56,0,0,0,12-11.52V24.14L52.52,24l-0.07-.19a13.87,13.87,0,0,0-1-2.27,16.83,16.83,0,0,0-11.07-8.3,16.5,16.5,0,0,0-3.82-.4,15.78,15.78,0,0,0-1.91.12c-0.53.09-1,.16-1.57,0.28a16.42,16.42,0,0,0-5.37,2.21,17.26,17.26,0,0,0-4.48,4.17l-0.07.09a17.56,17.56,0,0,1-3.49-5.38h0l0.09-.08,0.13-.13,0.19-.18A27.09,27.09,0,0,1,30.39,7.85,27.55,27.55,0,0,1,34.11,7a33.1,33.1,0,0,1,4-.39H38.8a25.34,25.34,0,0,1,2.93.16,26,26,0,0,1,6.92,1.71l0.49,0.19Q50,9,50.76,9.43l0.11,0.06c0.41,0.22.81,0.46,1.21,0.71a25.93,25.93,0,0,1,10.3,12.33A3.63,3.63,0,0,1,62.57,24.53Z" transform="translate(-9.15 -0.01)"/><path class="cls-1" d="M30.44,24.78a6,6,0,1,1,6.45,5.52h0A6,6,0,0,1,30.44,24.78Z" transform="translate(-9.15 -0.01)"/></svg>