<svg id="Capa_1" data-name="Capa 1" xmlns="http://www.w3.org/2000/svg" viewBox="0 0 71.77 71.68"><defs><style>.cls-1{fill:#fff;}</style></defs><title>logoblanco</title><path class="cls-1" d="M9.33,46.25a4.66,4.66,0,0,1-.55.47,3.83,3.83,0,0,1-1.38.63,3.47,3.47,0,0,1-.81.09,4.38,4.38,0,0,1-1.79-.37,4.57,4.57,0,0,1-1.44-1,4.62,4.62,0,0,1-1-1.48,4.93,4.93,0,0,1,0-3.64,4.62,4.62,0,0,1,1-1.48,4.57,4.57,0,0,1,1.44-1,4.38,4.38,0,0,1,1.79-.37,3.57,3.57,0,0,1,1.53.31,3.92,3.92,0,0,1,1.17.84V36a0.41,0.41,0,0,1,.44-0.43H10.9a0.47,0.47,0,0,1,.31.12,0.38,0.38,0,0,1,.14.31V46.86a0.39,0.39,0,0,1-.46.43H9.82a0.34,0.34,0,0,1-.29-0.11,1.08,1.08,0,0,1-.14-0.32ZM4,42.78a2.93,2.93,0,0,0,.2,1.08,2.72,2.72,0,0,0,.56.89,2.67,2.67,0,0,0,.84.6,2.48,2.48,0,0,0,1,.22,2.63,2.63,0,0,0,1.06-.22,2.76,2.76,0,0,0,.87-0.59,2.85,2.85,0,0,0,.59-0.87,2.78,2.78,0,0,0,.23-1.06v0a2.77,2.77,0,0,0-.21-1.07,2.92,2.92,0,0,0-.58-0.9,2.83,2.83,0,0,0-.87-0.62A2.55,2.55,0,0,0,6.68,40a2.39,2.39,0,0,0-1,.23,2.73,2.73,0,0,0-.84.62,2.84,2.84,0,0,0-.56.9A2.94,2.94,0,0,0,4,42.78Z" transform="translate(19.62 19.57)"/><path class="cls-1" d="M12.78,35.53a0.38,0.38,0,0,1,.42-0.43h1.2a0.47,0.47,0,0,1,.32.11,0.41,0.41,0,0,1,.12.32v1.06a0.5,0.5,0,0,1-.11.31,0.38,0.38,0,0,1-.32.15h-1.2a0.39,0.39,0,0,1-.43-0.46V35.53Zm0,3.15a0.46,0.46,0,0,1,.11-0.31,0.39,0.39,0,0,1,.31-0.12h1.18a0.44,0.44,0,0,1,.16,0,0.45,0.45,0,0,1,.15.09,0.56,0.56,0,0,1,.11.14,0.35,0.35,0,0,1,0,.17v8.18a0.39,0.39,0,0,1-.45.43H13.21a0.38,0.38,0,0,1-.43-0.43V38.68Z" transform="translate(19.62 19.57)"/><path class="cls-1" d="M17.64,44.73a1.53,1.53,0,0,0,.38.41,2.58,2.58,0,0,0,.47.28,2.32,2.32,0,0,0,.46.16,1.64,1.64,0,0,0,.35,0,3.07,3.07,0,0,0,.47,0,1.91,1.91,0,0,0,.51-0.15,1.22,1.22,0,0,0,.41-0.3,0.7,0.7,0,0,0,.17-0.48,0.76,0.76,0,0,0-.13-0.46,1,1,0,0,0-.36-0.3,2.54,2.54,0,0,0-.51-0.2l-0.61-.17A6,6,0,0,1,18,43.05a3.27,3.27,0,0,1-.86-0.64,2.32,2.32,0,0,1-.49-0.8,2.77,2.77,0,0,1-.16-0.95,2.41,2.41,0,0,1,.23-1.05,2.39,2.39,0,0,1,.64-0.82,3,3,0,0,1,1-.53,4.14,4.14,0,0,1,1.28-.19,4,4,0,0,1,.89.09,2.92,2.92,0,0,1,.73.27,3.07,3.07,0,0,1,.63.45,6.85,6.85,0,0,1,.6.63,0.39,0.39,0,0,1,.11.25,0.32,0.32,0,0,1-.14.24l-0.25.21-0.29.25-0.27.21a0.42,0.42,0,0,1-.21.09,0.41,0.41,0,0,1-.31-0.19,3.18,3.18,0,0,0-.31-0.32A1.62,1.62,0,0,0,20.42,40a1.57,1.57,0,0,0-.37-0.14,1.92,1.92,0,0,0-.43,0,1.54,1.54,0,0,0-.4.06,1.34,1.34,0,0,0-.38.17,1.11,1.11,0,0,0-.29.27,0.59,0.59,0,0,0-.12.36,0.56,0.56,0,0,0,.15.39,1.32,1.32,0,0,0,.37.28,2.71,2.71,0,0,0,.49.2l0.49,0.14a9.12,9.12,0,0,1,1.2.43,3.67,3.67,0,0,1,.94.59,2.47,2.47,0,0,1,.61.81,2.53,2.53,0,0,1,.22,1.09,2.61,2.61,0,0,1-.26,1.19,2.58,2.58,0,0,1-.73.89,3.33,3.33,0,0,1-1.1.56,4.76,4.76,0,0,1-1.38.19,4.47,4.47,0,0,1-.91-0.1,3.86,3.86,0,0,1-.89-0.3,3.41,3.41,0,0,1-.78-0.52,2.82,2.82,0,0,1-.6-0.75,0.64,0.64,0,0,1-.11-0.32,0.28,0.28,0,0,1,0-.16,0.63,0.63,0,0,1,.12-0.13l0.8-.61a0.38,0.38,0,0,1,.19-0.06,0.27,0.27,0,0,1,.18.07A1.45,1.45,0,0,1,17.64,44.73Z" transform="translate(19.62 19.57)"/><path class="cls-1" d="M31.4,46.29a5.08,5.08,0,0,1-1.37.84,4.25,4.25,0,0,1-1.63.31,4.64,4.64,0,0,1-1.82-.36A4.77,4.77,0,0,1,24,44.59a4.43,4.43,0,0,1-.38-1.83,4.77,4.77,0,0,1,.6-2.33,4.62,4.62,0,0,1,.7-0.95,4.44,4.44,0,0,1,2-1.21,4.62,4.62,0,0,1,1.26-.17,4.39,4.39,0,0,1,1.07.13,4.68,4.68,0,0,1,1,.37,4.75,4.75,0,0,1,.89.59,4.28,4.28,0,0,1,.73.78,4.21,4.21,0,0,1,.63,1.29,5.51,5.51,0,0,1,.2,1.53,2.8,2.8,0,0,1,0,.35,0.43,0.43,0,0,1-.09.22,0.41,0.41,0,0,1-.21.12,1.58,1.58,0,0,1-.4,0H25.71a2.41,2.41,0,0,0,.35.91,2.72,2.72,0,0,0,.62.67,2.6,2.6,0,0,0,.78.41,2.66,2.66,0,0,0,.84.14,2.9,2.9,0,0,0,.62-0.06,3.19,3.19,0,0,0,.55-0.17,3.08,3.08,0,0,0,.47-0.25,2.81,2.81,0,0,0,.38-0.29h0l0.17-.12a0.32,0.32,0,0,1,.16,0,0.32,0.32,0,0,1,.15,0,0.51,0.51,0,0,1,.16.14l0.33,0.39,0.22,0.26a1.09,1.09,0,0,1,.12.19,0.35,0.35,0,0,1,0,.16A0.53,0.53,0,0,1,31.4,46.29Zm-3.16-6.42a2.27,2.27,0,0,0-.82.15,2.75,2.75,0,0,0-.73.42,2.87,2.87,0,0,0-.58.62,2.53,2.53,0,0,0-.36.77h5A2.74,2.74,0,0,0,30.45,41a2.54,2.54,0,0,0-.56-0.62,2.47,2.47,0,0,0-.75-0.4A2.8,2.8,0,0,0,28.24,39.87Z" transform="translate(19.62 19.57)"/><path class="cls-1" d="M34,38.45a0.39,0.39,0,0,1,.16-0.14,0.24,0.24,0,0,1,.17-0.06h0.93a0.36,0.36,0,0,1,.31.14,0.78,0.78,0,0,1,.14.3l0.08,0.75a3.16,3.16,0,0,1,.4-0.48,2.68,2.68,0,0,1,.57-0.42,3.24,3.24,0,0,1,.75-0.3,3.62,3.62,0,0,1,.95-0.11,3.53,3.53,0,0,1,1.49.3,3.18,3.18,0,0,1,1.1.83,3.61,3.61,0,0,1,.68,1.24A4.93,4.93,0,0,1,42,42v4.75a0.54,0.54,0,0,1-.12.38,0.46,0.46,0,0,1-.35.13H40.44a0.51,0.51,0,0,1-.38-0.11A0.57,0.57,0,0,1,40,46.8V42.06a2.18,2.18,0,0,0-.13-0.74,2,2,0,0,0-.37-0.64,1.81,1.81,0,0,0-.61-0.46,2,2,0,0,0-1.52,0,2.22,2.22,0,0,0-.64.37,2,2,0,0,0-.48.59,1.63,1.63,0,0,0-.2.78v4.61a2.58,2.58,0,0,1,0,.27,0.83,0.83,0,0,1-.06.24,0.41,0.41,0,0,1-.13.17,0.36,0.36,0,0,1-.22.06H34.41a0.47,0.47,0,0,1-.35-0.11A0.43,0.43,0,0,1,34,46.86V38.66A0.36,0.36,0,0,1,34,38.45ZM35,36a2.46,2.46,0,0,1,.84-0.8,2.19,2.19,0,0,1,1.12-.3,2.47,2.47,0,0,1,.54.1,2.81,2.81,0,0,1,.61.28l0.55,0.33a0.8,0.8,0,0,0,.47.16,0.64,0.64,0,0,0,.38-0.11,1.7,1.7,0,0,0,.28-0.25L40,35.15A0.24,0.24,0,0,1,40.15,35a0.49,0.49,0,0,1,.25.12,3.7,3.7,0,0,1,.32.27,3.23,3.23,0,0,1,.28.3,0.46,0.46,0,0,1,.12.2,0.17,0.17,0,0,1,0,.08L41,36.13l-0.09.12-0.09.11A2.2,2.2,0,0,1,40,37a2.36,2.36,0,0,1-1,.22,1.83,1.83,0,0,1-.62-0.11,2.82,2.82,0,0,1-.6-0.3l-0.47-.3-0.22-.11a1,1,0,0,0-.25,0,0.61,0.61,0,0,0-.36.09,2.08,2.08,0,0,0-.26.22L36,37a0.37,0.37,0,0,1-.23.15A0.52,0.52,0,0,1,35.56,37l-0.33-.25-0.3-.28a0.4,0.4,0,0,1-.13-0.2,0.27,0.27,0,0,1,0-.08A1,1,0,0,1,35,36Z" transform="translate(19.62 19.57)"/><path class="cls-1" d="M42.81,42.78a4.66,4.66,0,0,1,2.32-4,4.77,4.77,0,0,1,1.11-.47,4.67,4.67,0,0,1,2.48,0,4.69,4.69,0,0,1,1.11.47,4.74,4.74,0,0,1,.94.73,4.66,4.66,0,0,1,.73,5.67,4.77,4.77,0,0,1-.73.94,4.64,4.64,0,0,1-2.06,1.2,4.67,4.67,0,0,1-2.48,0,4.76,4.76,0,0,1-1.11-.47,4.62,4.62,0,0,1-.95-0.73,4.77,4.77,0,0,1-.73-0.94A4.61,4.61,0,0,1,42.81,42.78Zm2,0a2.93,2.93,0,0,0,.2,1.08,2.72,2.72,0,0,0,.56.89,2.64,2.64,0,0,0,.84.6,2.55,2.55,0,0,0,1.06.22,2.47,2.47,0,0,0,1-.22,2.58,2.58,0,0,0,.83-0.6,2.74,2.74,0,0,0,.54-0.89,3.06,3.06,0,0,0,0-2.15,2.86,2.86,0,0,0-.54-0.9,2.65,2.65,0,0,0-.83-0.62,2.37,2.37,0,0,0-1-.23,2.45,2.45,0,0,0-1.06.23,2.71,2.71,0,0,0-.84.62,2.84,2.84,0,0,0-.56.9A2.94,2.94,0,0,0,44.82,42.78Z" transform="translate(19.62 19.57)"/><path class="cls-1" d="M-4,43.21s0,0,0,0a0.6,0.6,0,0,1,0,.09v0Zm0-.1a0.52,0.52,0,0,1,0,.06V43.1Zm-0.08-.18A0.61,0.61,0,0,1-4,43.1,0.45,0.45,0,0,0-4.06,42.92Zm0,0-0.07-.09A0.42,0.42,0,0,1-4.06,42.92Zm-0.17-.16,0.09,0.07,0,0Z" transform="translate(19.62 19.57)"/><path class="cls-1" d="M-4,43.25v6.56A0.56,0.56,0,0,1-4,50.1a0.77,0.77,0,0,1-.28.26h0a8.82,8.82,0,0,1-1.26.74A9.1,9.1,0,0,1-7,51.65,11.69,11.69,0,0,1-8.53,52a10.4,10.4,0,0,1-1.55.12,9.49,9.49,0,0,1-2.54-.34,9.19,9.19,0,0,1-2.28-1,9.66,9.66,0,0,1-1.92-1.49,9.57,9.57,0,0,1-1.49-1.93,9.24,9.24,0,0,1-1-2.27,9.62,9.62,0,0,1-.34-2.55A9.58,9.58,0,0,1-19.28,40a9.5,9.5,0,0,1,1-2.28,9.73,9.73,0,0,1,1.49-1.94,9.37,9.37,0,0,1,1.93-1.5,9.7,9.7,0,0,1,2.28-1A9.44,9.44,0,0,1-10.07,33a9.85,9.85,0,0,1,1.77.16,9.27,9.27,0,0,1,1.71.47l0.74,0.31a8,8,0,0,1,.82.41,4.17,4.17,0,0,1,.66.46,0.65,0.65,0,0,1,.27.46,0.86,0.86,0,0,1-.11.32q-0.11.22-.28,0.49c-0.11.18-.24,0.37-0.38,0.57s-0.28.37-.42,0.53a4.59,4.59,0,0,1-.36.39,0.44,0.44,0,0,1-.25.16l-0.18,0a0.68,0.68,0,0,1-.22-0.12,6.88,6.88,0,0,0-1.78-.88,6.35,6.35,0,0,0-2-.32,5.94,5.94,0,0,0-2.45.5,6,6,0,0,0-1.91,1.35,6.21,6.21,0,0,0-1.25,2,6.24,6.24,0,0,0-.45,2.36A6,6,0,0,0-15.67,45a6.27,6.27,0,0,0,1.3,2,6.06,6.06,0,0,0,1.92,1.31,5.76,5.76,0,0,0,2.34.48,6.12,6.12,0,0,0,.91-0.07c0.3,0,.58-0.11.85-0.18a5.07,5.07,0,0,0,.71-0.24A3.66,3.66,0,0,0-7.14,48V45.39H-9.83a0.67,0.67,0,0,1-.67-0.67V43.33a0.67,0.67,0,0,1,.67-0.67h5.39l0.11,0,0.1,0.06,0.09,0.07A0.61,0.61,0,0,1-4,43.25Z" transform="translate(19.62 19.57)"/><path class="cls-1" d="M42.95,4.92h0c-0.11.66-.27,1.31-0.45,1.95a26.34,26.34,0,0,1-5.39,10.3A26.9,26.9,0,0,1,26.18,25a25.44,25.44,0,0,1-4.45,1.31,10.24,10.24,0,0,1-1.27.21,5.42,5.42,0,0,1-1.09.17,27.47,27.47,0,0,1-3.05.18H15.82a27,27,0,0,1-7.7-1.23L8,25.6A13,13,0,0,1,6.29,25a27.13,27.13,0,0,1-5.2-2.72,28,28,0,0,1-3.2-2.51,27.13,27.13,0,0,1-6.2-8.34c-0.13-.27-0.26-0.55-0.38-0.83A28.21,28.21,0,0,1-10,6.88a1.78,1.78,0,0,1,0-.26,7.84,7.84,0,0,1-.3-1.18h0a4.91,4.91,0,0,1,0-2.05A28.86,28.86,0,0,1,29.56-17.1a25,25,0,0,0-9.77-2A24.84,24.84,0,0,0,11-17.5h0A24.51,24.51,0,0,0,7.1-15.61c-0.29.15-.58,0.31-0.86,0.47A17.51,17.51,0,0,0-1.27-.76,17.53,17.53,0,0,0,10.47,15.79a10.21,10.21,0,0,0,1.41.44,17.05,17.05,0,0,0,2.71.51,21.38,21.38,0,0,0,2.53,0l0.49,0c0.45,0,.88-0.09,1.32-0.16a15.93,15.93,0,0,0,2-.43A17.56,17.56,0,0,0,33,4.62l0-.08-0.06-.17-0.07-.19a13.87,13.87,0,0,0-1-2.27,16.74,16.74,0,0,0-3.3-4.22,16.74,16.74,0,0,0-7.77-4.08,16.5,16.5,0,0,0-3.82-.4A15.78,15.78,0,0,0,15-6.67c-0.53.09-1.05,0.16-1.57,0.28A16.42,16.42,0,0,0,8-4.18,17.26,17.26,0,0,0,3.53,0l-0.07.09A17.56,17.56,0,0,1,0-5.3v0H0l0.09-.08,0.13-.13,0.19-.18a27.09,27.09,0,0,1,10.31-6.06,27.55,27.55,0,0,1,3.72-.9,33.1,33.1,0,0,1,4-.39c0.23,0,.46,0,0.69,0a25.34,25.34,0,0,1,2.93.16,26,26,0,0,1,6.92,1.71L29.43-11c0.55,0.25,1.09.52,1.62,0.81l0.11,0.06c0.41,0.22.81,0.46,1.21,0.71A25.93,25.93,0,0,1,42.76,3,3.63,3.63,0,0,1,42.95,4.92Z" transform="translate(19.62 19.57)"/><path class="cls-1" d="M10.82,5.21a6,6,0,1,1,6.41,5.52A6,6,0,0,1,10.82,5.21Z" transform="translate(19.62 19.57)"/></svg>