<svg id="Capa_1" data-name="Capa 1" xmlns="http://www.w3.org/2000/svg" viewBox="0 0 587.79 260.02"><defs><style>.cls-1{fill:#ffcb00;}</style></defs><title>logomitad</title><path class="cls-1" d="M218,560H108.7a55.17,55.17,0,0,1,1.2-10.68C141.08,405.55,269.68,298.54,422.62,300a316.78,316.78,0,0,1,128.45,28.43,275.41,275.41,0,0,0-203.47-6.32,0.24,0.24,0,0,0-.15.08A269.7,269.7,0,0,0,304,342.5c-3.24,1.58-6.4,3.31-9.5,5A192.74,192.74,0,0,0,218,560Z" transform="translate(-108.7 -299.98)"/><path class="cls-1" d="M696.49,560h-113a165.85,165.85,0,0,0-10.18-22.33A183.88,183.88,0,0,0,537.51,491a184.14,184.14,0,0,0-85-45.66,181.35,181.35,0,0,0-41.95-4.82,172.82,172.82,0,0,0-21,1.13c-5.8.9-11.59,1.65-17.32,2.91-21.07,4.63-41,12.07-59.28,23.76a189.82,189.82,0,0,0-49.74,45.39c-0.22.36-.52,0.66-0.74,1-6.46-6.44-22.48-24.69-37.68-59.56a1.51,1.51,0,0,0,.29-0.44v-0.07a2.24,2.24,0,0,1,.83-0.87c0.51-.51.89-0.94,1.41-1.38,0.66-.65,1.37-1.3,2-2a297.8,297.8,0,0,1,114-65.58,303.2,303.2,0,0,1,41-9.5c14.53-2.35,29-3.24,43.7-3.83,2.49,0,5,.12,7.61.22a279.77,279.77,0,0,1,32.21,2.07,285.56,285.56,0,0,1,75.86,19.56c1.83,0.68,3.58,1.43,5.33,2.18,6,2.84,11.89,5.83,17.72,9.11a9.49,9.49,0,0,1,1.16.67c4.52,2.46,8.89,5.14,13.26,7.89a284.86,284.86,0,0,1,113,137.19A37.59,37.59,0,0,1,696.49,560Z" transform="translate(-108.7 -299.98)"/><path class="cls-1" d="M473.55,560H343A65.7,65.7,0,0,1,473.55,560Z" transform="translate(-108.7 -299.98)"/></svg>