<svg id="Capa_1" data-name="Capa 1" xmlns="http://www.w3.org/2000/svg" viewBox="0 0 425.09 192.64"><defs><style>.cls-1{opacity:0.11;}.cls-2{fill:#fff;}</style></defs><title>logomitadtransparente</title><g class="cls-1"><path class="cls-2" d="M-22.5,22.88A137.74,137.74,0,0,0-15.67,66H-95.6a39.19,39.19,0,0,1,.71-10.26C-73.34-48.4,18.88-126.64,129.45-126.64A229,229,0,0,1,222.51-107a198.31,198.31,0,0,0-77.64-15.72,197.41,197.41,0,0,0-69.49,12.56,0.18,0.18,0,0,0-.11.05A194.08,194.08,0,0,0,44-95.09c-2.33,1.16-4.61,2.4-6.83,3.67A139.12,139.12,0,0,0-22.5,22.88Z" transform="translate(95.69 126.64)"/><path class="cls-2" d="M329.23,66H249.37a0.94,0.94,0,0,0,.15-0.37c-0.11-.22-0.16-0.39-0.27-0.6-0.16-.48-0.31-0.88-0.47-1.36s-0.37-1-.59-1.47a109.68,109.68,0,0,0-8.15-18,133.33,133.33,0,0,0-26.21-33.53,134.76,134.76,0,0,0-31.2-21.6A133.15,133.15,0,0,0,152-21.77,130.87,130.87,0,0,0,121.67-25a125.91,125.91,0,0,0-15.21,1c-4.19.69-8.37,1.28-12.5,2.23-15.2,3.49-29.55,9-42.69,17.58A137.11,137.11,0,0,0,15.64,28.94c-0.17.27-.37,0.48-0.53,0.75C10.39,25.08-1.65,12-12.88-13.11A0.88,0.88,0,0,0-13-13.43v0a3.58,3.58,0,0,1,.92-0.64c0.36-.36.8-0.69,1.18-1,0.47-.48,1.06-1,1.53-1.43a215.38,215.38,0,0,1,82-48.19,219.21,219.21,0,0,1,29.61-7.15A264.17,264.17,0,0,1,133.84-75c1.81,0,3.66.06,5.51,0.11a203,203,0,0,1,23.3,1.27,206.56,206.56,0,0,1,55,13.62c1.32,0.47,2.59,1,3.86,1.53,4.34,2,8.64,4.14,12.87,6.46a7.39,7.39,0,0,1,.85.47c3.28,1.75,6.45,3.65,9.64,5.62a205.92,205.92,0,0,1,82.62,98.38A28.36,28.36,0,0,1,329.23,66Z" transform="translate(95.69 126.64)"/><path class="cls-2" d="M168.42,66h-95a47.5,47.5,0,0,1,94.87-2.76C168.38,64.22,168.42,66,168.42,66Z" transform="translate(95.69 126.64)"/></g></svg>